<svg width="180" height="180" viewBox="0 0 180 180" fill="none" xmlns="http://www.w3.org/2000/svg">
<!-- <rect width="180" height="180" fill="white"/> -->
<path d="M110 40C110 51.0457 101.046 60 90 60C78.9543 60 70 51.0457 70 40C70 28.9543 78.9543 20 90 20C101.046 20 110 28.9543 110 40ZM81 40C81 44.9706 85.0294 49 90 49C94.9706 49 99 44.9706 99 40C99 35.0294 94.9706 31 90 31C85.0294 31 81 35.0294 81 40Z" fill="#2563eb"/>
<path d="M110 90C110 101.046 101.046 110 90 110C78.9543 110 70 101.046 70 90C70 78.9543 78.9543 70 90 70C101.046 70 110 78.9543 110 90ZM81 90C81 94.9706 85.0294 99 90 99C94.9706 99 99 94.9706 99 90C99 85.0294 94.9706 81 90 81C85.0294 81 81 85.0294 81 90Z" fill="#2563eb"/>
<path d="M110 140C110 151.046 101.046 160 90 160C78.9543 160 70 151.046 70 140C70 128.954 78.9543 120 90 120C101.046 120 110 128.954 110 140ZM81 140C81 144.971 85.0294 149 90 149C94.9706 149 99 144.971 99 140C99 135.029 94.9706 131 90 131C85.0294 131 81 135.029 81 140Z" fill="#2563eb"/>
<path d="M60 40C60 51.0457 51.0457 60 40 60C28.9543 60 20 51.0457 20 40C20 28.9543 28.9543 20 40 20C51.0457 20 60 28.9543 60 40ZM31 40C31 44.9706 35.0294 49 40 49C44.9706 49 49 44.9706 49 40C49 35.0294 44.9706 31 40 31C35.0294 31 31 35.0294 31 40Z" fill="#2563eb"/>
<path d="M60 90C60 101.046 51.0457 110 40 110C28.9543 110 20 101.046 20 90C20 78.9543 28.9543 70 40 70C51.0457 70 60 78.9543 60 90ZM31 90C31 94.9706 35.0294 99 40 99C44.9706 99 49 94.9706 49 90C49 85.0294 44.9706 81 40 81C35.0294 81 31 85.0294 31 90Z" fill="#2563eb"/>
<path d="M60 140C60 151.046 51.0457 160 40 160C28.9543 160 20 151.046 20 140C20 128.954 28.9543 120 40 120C51.0457 120 60 128.954 60 140ZM31 140C31 144.971 35.0294 149 40 149C44.9706 149 49 144.971 49 140C49 135.029 44.9706 131 40 131C35.0294 131 31 135.029 31 140Z" fill="#2563eb"/>
<path d="M160 40C160 51.0457 151.046 60 140 60C128.954 60 120 51.0457 120 40C120 28.9543 128.954 20 140 20C151.046 20 160 28.9543 160 40ZM131 40C131 44.9706 135.029 49 140 49C144.971 49 149 44.9706 149 40C149 35.0294 144.971 31 140 31C135.029 31 131 35.0294 131 40Z" fill="#2563eb"/>
<path d="M160 90C160 101.046 151.046 110 140 110C128.954 110 120 101.046 120 90C120 78.9543 128.954 70 140 70C151.046 70 160 78.9543 160 90ZM131 90C131 94.9706 135.029 99 140 99C144.971 99 149 94.9706 149 90C149 85.0294 144.971 81 140 81C135.029 81 131 85.0294 131 90Z" fill="#2563eb"/>
<path d="M160 140C160 151.046 151.046 160 140 160C128.954 160 120 151.046 120 140C120 128.954 128.954 120 140 120C151.046 120 160 128.954 160 140ZM131 140C131 144.971 135.029 149 140 149C144.971 149 149 144.971 149 140C149 135.029 144.971 131 140 131C135.029 131 131 135.029 131 140Z" fill="#2563eb"/>
<rect x="34" y="58" width="11" height="14" fill="#2563eb"/>
<rect x="108" y="146" width="11" height="14" transform="rotate(-90 108 146)" fill="#2563eb"/>
<rect x="47" y="106" width="11" height="36" transform="rotate(-45 47 106)" fill="#2563eb"/>
<rect x="123.456" y="48" width="11" height="36" transform="rotate(45 123.456 48)" fill="#2563eb"/>
</svg>
